<?xml version="1.0" encoding="utf-8"?>
<!-- Generator: Adobe Illustrator 29.1.0, SVG Export Plug-In . SVG Version: 9.03 Build 55587)  -->
<svg version="1.0" xmlns="http://www.w3.org/2000/svg" xmlns:xlink="http://www.w3.org/1999/xlink" x="0px" y="0px"
	 viewBox="0 0 341.2738953 91.6433105" enable-background="new 0 0 341.2738953 91.6433105" xml:space="preserve">
<g id="Layer_1">
	<path fill="#FE667C" d="M83.7880859,47.303936c1.2591858,1.1957741,1.2920609,3.2101784,0.206543,4.565567
		c-0.0298004,0.0372086-0.0604324,0.0736618-0.0919876,0.1092911c-1.8631744,2.1034317-3.7854919,4.154007-5.6993179,6.2114983
		c-1.3133926,1.4119949-3.0996323,1.5402031-4.386734,0.3422165c-1.3359833-1.2434921-1.4039001-3.2399139-0.1333313-4.6292763
		c1.9386902-2.1199341,3.8827362-4.2350807,5.8437271-6.3340454c1.0028229-1.0733757,2.2621078-1.3391304,3.4754944-0.7994995
		C83.2873535,46.8963814,83.5513916,47.0791588,83.7880859,47.303936z"/>
	<path fill="#FE667C" d="M79.3591766,62.5975952c-0.6707611-0.93013-0.6437607-2.1887779-0.1006546-3.1987877
		c0.1225433-0.2278976,0.2581024-0.4443054,0.4234467-0.6344223c1.3727646-1.5784988,2.8116531-3.0991478,4.2401199-4.6277962
		c1.267334-1.3562088,3.5025177-1.2766457,4.5822449,0.3254585c0.7643661,1.1341591,0.6152115,2.6662827-0.2742691,3.7052231
		c-1.4711304,1.7183342-3.0144501,3.3809319-4.6205139,4.970829c-0.8980331,0.8889771-2.0745697,0.9087372-3.2169724,0.3351784
		C79.9674759,63.2598457,79.6233978,62.963974,79.3591766,62.5975952z"/>
	<path fill="#FE667C" d="M76.8971634,45.380188c0.0144272,0.0274811,0.0285797,0.0553093,0.0424652,0.0834846
		c0.5299911,1.0751572,0.3393326,2.368618-0.4294968,3.2882614c-0.8781815,1.0504417-1.8115768,2.0611115-2.7915344,3.0149651
		c-1.1041718,1.0747566-2.8700714,1.0218735-3.9770584-0.0160713c-1.1016541-1.0329361-1.2916107-2.8197708-0.3193054-4.0023384
		c0.9094543-1.1061249,1.8659897-2.1911888,2.9253464-3.1463814c0.1139297-0.1027222,0.2403259-0.1914101,0.3753204-0.2704124
		C74.179512,43.4792824,76.1128845,43.8857956,76.8971634,45.380188z"/>
	<path fill="#FE667C" d="M93.0815353,60.7328568c0.4518051,0.8302193,0.3988953,1.8501396-0.0380096,2.6882973
		c-0.965332,1.8518944-3.4181747,4.2731972-4.6892242,4.4235649c-1.2145767,0.143692-2.2305679-0.2941437-2.8725128-1.350029
		c-0.6777725-1.1148071-0.6934128-2.3205795,0.1357498-3.3456268c0.9409256-1.163208,1.9777298-2.2573853,3.0529861-3.297451
		c0.8292847-0.8021317,2.1712952-0.8546944,3.2332916-0.2705154C92.4521713,59.8827362,92.8347473,60.2793541,93.0815353,60.7328568
		z"/>
	<g>
		<path fill="#0023FF" d="M208.1306305,24.412138h8.5412445l6.5354919,40.1278305h-6.3059692l-1.1468201-7.9682236v0.1147614
			h-7.1656952l-1.1460266,7.8534622h-5.847702L208.1306305,24.412138z M215.0092163,51.2402687l-2.8087006-19.8343906h-0.1143646
			l-2.7519073,19.8343906H215.0092163z"/>
		<path fill="#0023FF" d="M226.2447815,24.412138h6.3059692v40.1278305h-6.3059692V24.412138z"/>
		<path fill="#0023FF" d="M239.2565765,62.4762383c-1.6442719-1.757431-2.4656067-4.2422295-2.4656067-7.4523926V33.9282646
			c0-3.210165,0.8213348-5.6941624,2.4656067-7.4523926c1.6426697-1.7574329,4.0122986-2.6371479,7.1081085-2.6371479
			c3.0957947,0,5.4646301,0.879715,7.1080933,2.6371479c1.6426697,1.7582302,2.4656067,4.2422276,2.4656067,7.4523926v21.0955811
			c0,3.2101631-0.822937,5.6949615-2.4656067,7.4523926c-1.6434631,1.7582283-4.0122986,2.6371498-7.1080933,2.6371498
			C243.2688751,65.1133881,240.8992462,64.2344666,239.2565765,62.4762383z M249.632431,55.4253159V33.5267944
			c0-2.6367493-1.0892487-3.9555244-3.267746-3.9555244s-3.267746,1.3187752-3.267746,3.9555244v21.8985214
			c0,2.6367493,1.0892487,3.9555244,3.267746,3.9555244S249.632431,58.0620651,249.632431,55.4253159z"/>
		<path fill="#0023FF" d="M260.1802063,24.412138h7.9110413l6.1332397,24.0194378h0.1151428V24.412138h5.6174011v40.1278305
			h-6.4771118l-7.5671692-29.293335h-0.1143494v29.293335h-5.6181946V24.412138z"/>
		<path fill="#0023FF" d="M284.6571045,24.412138h6.3059692v40.1278305h-6.3059692V24.412138z"/>
		<path fill="#0023FF" d="M297.6697083,62.4762383c-1.6442871-1.757431-2.4656067-4.2422295-2.4656067-7.4523926V33.9282646
			c0-3.210165,0.8213196-5.6941624,2.4656067-7.4523926c1.6426697-1.7574329,4.0122986-2.6371479,7.1080933-2.6371479
			s5.4646301,0.879715,7.1080933,2.6371479c1.6426697,1.7582302,2.4656067,4.2422276,2.4656067,7.4523926v21.0955811
			c0,3.2101631-0.822937,5.6949615-2.4656067,7.4523926c-1.6434631,1.7582283-4.0122986,2.6371498-7.1080933,2.6371498
			S299.3123779,64.2344666,297.6697083,62.4762383z M308.0455627,55.4253159V33.5267944
			c0-2.6367493-1.0892639-3.9555244-3.2677612-3.9555244s-3.2677307,1.3187752-3.2677307,3.9555244v21.8985214
			c0,2.6367493,1.0892334,3.9555244,3.2677307,3.9555244S308.0455627,58.0620651,308.0455627,55.4253159z"/>
		<path fill="#0023FF" d="M318.5925293,24.412138h7.9110413l6.1332397,24.0194378h0.1151428V8.1116295h5.6174011v56.4283409
			h-6.4771118l-7.5671387-29.293335h-0.1143799v29.293335h-5.6181946V24.412138z"/>
	</g>
	<g>
		<path fill="#0023FF" d="M205.0127563,76.3466644c-0.9775391,0-1.7226562,0.2631836-2.2363281,0.7895508
			c-0.5126953,0.5268555-0.7695312,1.2700195-0.7695312,2.2294922v6.6000977c0,0.9599609,0.2568359,1.7026367,0.7695312,2.2294922
			c0.5136719,0.5263672,1.2587891,0.7895508,2.2363281,0.7895508c0.9765625,0,1.7226562-0.2631836,2.2353516-0.7895508
			c0.5136719-0.5268555,0.7705078-1.2695312,0.7705078-2.2294922v-1.737793h-1.9296875v1.878418
			c0,0.7490234-0.3408203,1.1235352-1.0205078,1.1235352c-0.6806641,0-1.0205078-0.3745117-1.0205078-1.1235352v-6.8637695
			c0-0.7602539,0.3398438-1.140625,1.0205078-1.140625c0.6796875,0,1.0205078,0.3803711,1.0205078,1.140625v1.421875h1.9296875
			v-1.2988281c0-0.9594727-0.2568359-1.7026367-0.7705078-2.2294922
			C206.7354126,76.609848,205.9893188,76.3466644,205.0127563,76.3466644z"/>
		<path fill="#0023FF" d="M226.2949829,76.5219574l-2.1152344,12.2875977h1.8925781l0.3710938-2.4047852h2.3193359v-0.0351562
			l0.3710938,2.4399414h2.0410156l-2.1152344-12.2875977H226.2949829z M226.6846313,84.7372894l0.890625-6.0737305h0.0371094
			l0.9091797,6.0737305H226.6846313z"/>
		<path fill="#0023FF" d="M250.6387329,76.5219574h-3.0058594v12.2875977h2.0410156v-5.0029297h0.9648438
			c1.0136719,0,1.7744141-0.2573242,2.2822266-0.7719727c0.5068359-0.5151367,0.7607422-1.2700195,0.7607422-2.2646484v-1.2114258
			c0-0.9941406-0.2539062-1.7490234-0.7607422-2.2641602C252.413147,76.7797699,251.6524048,76.5219574,250.6387329,76.5219574z
			 M251.640686,80.8930511c0,0.4208984-0.0839844,0.7197266-0.2509766,0.8950195
			c-0.1669922,0.1757812-0.4169922,0.2631836-0.7509766,0.2631836h-0.9648438v-3.7739258h0.9648438
			c0.3339844,0,0.5839844,0.0878906,0.7509766,0.2631836c0.1669922,0.1757812,0.2509766,0.4741211,0.2509766,0.8955078V80.8930511z"
			/>
		<rect x="270.2686157" y="76.5219574" fill="#0023FF" width="2.0410156" height="12.2875977"/>
		<polygon fill="#0023FF" points="288.7676392,78.2773285 290.9014282,78.2773285 290.9014282,88.8095551 292.9424438,88.8095551 
			292.9424438,78.2773285 295.0762329,78.2773285 295.0762329,76.5219574 288.7676392,76.5219574 		"/>
		<path fill="#0023FF" d="M312.2578735,76.5219574l-2.1152344,12.2875977h1.8925781l0.3710938-2.4047852h2.3193359v-0.0351562
			l0.3710938,2.4399414h2.0410156l-2.1152344-12.2875977H312.2578735z M312.647522,84.7372894l0.890625-6.0737305h0.0371094
			l0.9091797,6.0737305H312.647522z"/>
		<polygon fill="#0023FF" points="335.6367798,87.054184 335.6367798,76.5219574 333.5957642,76.5219574 333.5957642,88.8095551 
			338.9951782,88.8095551 338.9951782,87.054184 		"/>
	</g>
	<polygon fill="#FE667C" points="330.2656555,9.6835337 340.8557129,9.6835337 335.5606689,3 	"/>
	<path fill="#0023FF" d="M117.346077,49.0483818c-0.161232-0.8252945-0.6521606-1.5498161-1.3024826-2.0832672
		l-11.4431152-9.3868752c-2.1586151-1.7707253-4.810318-2.8936996-7.5993271-3.0220833
		c-0.9874802-0.0454559-1.9588776,0.0353241-2.7557297,0.3461685c0,0-1.907547,0.4042473-4.1648865,2.2077599
		c-1.3134079,1.0493507-2.771225,1.928978-4.3826065,2.408165c-0.2146149,0.0638199-0.4321976,0.1212196-0.650322,0.1697121
		c-2.0396118,0.4534378-4.0758209-1.0752182-4.0354767-3.1469765c0.017189-0.882412,0.6059952-1.9472313,1.4724045-3.1643906
		c0,0,1.308609-2.446125,2.6528931-4.0979099c0.6135559-0.7539101,1.3575897-1.3833084,2.1960754-1.8750114
		c1.2104111-0.7098026,3.4900818-1.5613194,4.9144287-2.4638443c0.0079651-0.0050449-1.0758972-0.8433189-1.0832062-0.8493061
		C90.7423935,23.7445221,69.9148254,6.7309284,64.2758179,4.6605954c-4.4853973-1.6467893-8.4124031-3.6159878-18.6967392-3.9652069
		c0,0-32.5032616-0.2723928-42.9066963,32.5532227C-2.2320364,48.7233658,2.9550712,81.6302872,35.1442947,89.487999
		c30.9442291,7.5538177,52.0099335-19.0453949,52.841011-20.1134644c0.0105591-0.0135803,0.0023041-0.0308456-0.0148544-0.0296478
		c-0.4057083,0.0282135-3.7378311,0.134613-3.9704895-3.9582443c-0.0003891-0.0068207,0.0015182-0.0133362-0.0052032-0.0121078
		c-0.1950607,0.0354233-6.6940308,1.1681137-6.6785355-5.2344818c0.0000458-0.0168266-0.0147781-0.0307693-0.0312347-0.0272598
		c-0.4721375,0.1007042-6.1113586,1.1586418-5.9361725-5.7990189c0.0001984-0.0079002,0.0024719-0.0131531-0.0051651-0.0154228
		c-0.0743408-0.0220795-0.8888702-0.2721825-1.7826157-0.8853836c-1.4942703-1.0251884-2.1299362-2.8774376-1.7448425-4.6151695
		c0.0049133-0.0221863-0.0161972-0.0392189-0.0325317-0.0234184c-3.4805908,3.3669052-14.3282089,13.0266075-23.7014771,12.4658661
		c-5.3485565-0.3199196-13.4652138-5.8851547-12.8706722-17.1297569
		c0.5310173-10.0428543,10.4607372-14.0616016,15.6791668-13.8089638
		c8.3503494,0.4043484,19.2546616,13.7682571,21.5803375,16.7401848c0.0098572,0.0125923,0.0235214,0.0094719,0.0321884-0.0039635
		c1.0494003-1.626915,2.100296-3.0175323,3.7183075-3.8896408c1.5966721-0.8605881,3.5208511-1.1984558,5.0265198,0.4841309
		c0.4487,0.5014153,0.7485504,1.1304741,0.8589172,1.7915039c0.0006638,0.0039902,0.0013275,0.0079803,0.0019836,0.0119743
		l0.3672638,1.5107346c0.0048523,0.0208397,0.0285568,0.0307884,0.0439606,0.015831
		c0.3694382-0.3586082,3.7935257-3.5286446,6.6650848-0.7502136c1.8834076,1.822319,0.7466583,4.968277,0.6067963,5.331131
		c-0.006012,0.0156021,0.0048981,0.0309639,0.0214233,0.02845c0.2636032-0.0400658,1.9710007-0.2141151,3.5554733,1.6769028
		c1.7478409,2.0861015,0.9174347,4.1048393,0.7733231,4.4146004c-0.0074158,0.0159264,0.0050659,0.0311317,0.0216522,0.0253448
		c0.2877731-0.1004066,2.0287399-0.5829811,3.8953247,1.6464767c1.6020126,1.9134789-0.1612091,5.3807487-0.2743149,5.5981102
		c-0.005722,0.010994,0.0006943,0.0165558,0.0098038,0.0249481l1.4597473,1.3444824
		c1.1340103,1.0444717,2.8286667,1.3329544,4.1754761,0.5826035c1.1483307-0.6397781,1.3456039-1.6002274,1.2460709-2.4169769
		c-0.1019516-0.836647-0.569458-1.5859146-1.2133789-2.1297379l-4.6676865-3.9421158c0,0,0.2431564-1.4222298,1.2996979-0.7383881
		l5.7408829,4.5897026c0,0,1.5846405,1.1570053,3.4670944-0.4580612c1.0926056-0.9548416,1.0890045-2.6546364-0.0076447-3.6049385
		l-7.2484131-6.2815437c0,0,0.2289352-1.1360664,1.0163116-0.8098946l7.560051,5.8455887
		c1.3216629,1.021946,3.1951904,0.9119682,4.3879852-0.2576065c1.1424332-1.1559639,1.0410309-3.0440292-0.2186356-4.0712509
		l-8.8613205-7.2259064c0,0-0.0946198-1.5538177,1.0849762-1.0359802l9.8054276,7.2091866
		c1.2145004,0.8929291,2.9034424,0.7437973,3.9426804-0.3481331l0.0324097-0.0340538
		C117.4198608,50.5102577,117.4779587,49.7233391,117.346077,49.0483818z"/>
	<line fill="none" x1="323.4405212" y1="13.8022995" x2="323.4405212" y2="0"/>
</g>
<g id="Layer_4">
</g>
<g id="Layer_3">
	<path fill="#FE667C" d="M166.4495697,9.9148941c-31.3686676-21.6235809-59.3927765,3.2050085-59.3927765,3.2050085
		l-4.939888,3.903615c-1.4305573,1.1304569-2.7807465,2.3689899-3.939621,3.7766209
		c-1.3985825,1.6987896-3.5846786,3.516819-5.1078415,4.6980801c-0.8442612,0.6547508-1.7645035,1.2121239-2.771698,1.5685406
		c-2.0114212,0.7117825-3.5625,2.2179909-3.5625,2.2179909c-0.7890549,0.8592548-3.8201675,5.5266933-3.8201675,5.5266933
		c-1.399826,2.7473145-0.1064606,3.6208,1.3410416,3.8506088c1.245903,0.1977997,1.8654251-0.2450829,2.914444-0.9457817
		c1.6992111-1.1349983,4.6706619-3.084095,4.6706619-3.084095c3.2757568-1.9820175,5.7058945-1.6228104,8.0161133-0.9957352
		c1.1726379,0.3182945,2.7959137,1.3036346,4.4368134,2.3069839c0,0,10.1593857,7.4754524,13.1571655,10.4087257
		c0.5525513,0.5406609,0.7237625,1.0745316,0.8357468,1.3959694c1.5519943-1.6262131,14.8215942-15.2656822,22.9083862-14.8620605
		c8.5988464,0.4291801,15.2232819,7.7148247,14.7961273,16.2728767
		c-0.4271393,8.5580559-7.7440948,15.1478043-16.3429565,14.7186241
		c-7.8980713-0.3942032-19.4299927-13.5268211-21.2583618-15.6660614c1.1931305,5.4875336-5.3031464,5.0821419-5.3031464,5.0821419
		c0.5057678,5.9661751-5.2025223,5.3385353-5.2025223,5.3385353c0.8492737,5.9832573-5.2025223,5.3384781-5.2025223,5.3384781
		c0.7973633,4.7239723-5.9028854,5.0492821-5.9028854,5.0492821s18.0407791,24.6864319,49.3604813,21.2262039
		c13.8455353-1.5296707,35.0228577-13.2565918,37.9812927-40.5664215
		C185.9799194,32.5191765,175.4285126,16.1043606,166.4495697,9.9148941z"/>
</g>
<g id="Layer_2">
</g>
</svg>
