<svg xmlns="http://www.w3.org/2000/svg" width="55" height="55" viewBox="0 0 55 55">
  <g id="Group_137" data-name="Group 137" transform="translate(-915 -1038)">
    <path id="ic_card_giftcard_24px" d="M27.74,7.72H24.622A4.28,4.28,0,0,0,17.015,3.93l-.715.958-.715-.972a4.281,4.281,0,0,0-7.607,3.8H4.86a2.838,2.838,0,0,0-2.846,2.86L2,26.31a2.85,2.85,0,0,0,2.86,2.86H27.74a2.85,2.85,0,0,0,2.86-2.86V10.58A2.85,2.85,0,0,0,27.74,7.72ZM20.59,4.86a1.43,1.43,0,1,1-1.43,1.43A1.434,1.434,0,0,1,20.59,4.86Zm-8.58,0a1.43,1.43,0,1,1-1.43,1.43A1.434,1.434,0,0,1,12.01,4.86ZM27.74,26.31H4.86V23.45H27.74Zm0-7.15H4.86V10.58h7.264L9.15,14.627,11.466,16.3l3.4-4.633L16.3,9.722l1.43,1.945,3.4,4.633,2.317-1.673L20.475,10.58H27.74Z" transform="translate(926 1050)" fill="#434343"/>
    <g id="Ellipse_30" data-name="Ellipse 30" transform="translate(915 1038)" fill="none" stroke="#434343" stroke-width="1.5">
      <circle cx="27.5" cy="27.5" r="27.5" stroke="none"/>
      <circle cx="27.5" cy="27.5" r="26.75" fill="none"/>
    </g>
  </g>
</svg>
