<svg xmlns="http://www.w3.org/2000/svg" width="55" height="55" viewBox="0 0 55 55">
  <g id="Group_138" data-name="Group 138" transform="translate(-915 -969)">
    <path id="Path_313" data-name="Path 313" d="M494.756,553.625Q481,547.5,481,541.4V526.114c0-1.174.451-1.446,1.7-2.2h0c.378-.228.827-.5,1.36-.856a24.482,24.482,0,0,1,10.7-3.057,19.8,19.8,0,0,1,10.7,3.057c.533.355.983.628,1.36.856,1.246.755,1.7,1.027,1.7,2.2.031.332.015,7.393.006,11.914,0,1.541-.006,2.788-.006,3.37Q508.511,547.512,494.756,553.625Zm10.7-12.227c0-.352,0-.942,0-1.9l.006-2.987c0-.965,0-1.794,0-2.585.006-3.411,0-6.34,0-7.246l-.211-.13c-.494-.307-1.139-.706-1.5-.948a16.736,16.736,0,0,0-9-2.543,20.529,20.529,0,0,0-9,2.543c-.361.241-1.006.64-1.5.948h0l-.2.121V541.4c0,2.3,3.407,5.455,10.7,8.868C502.049,546.86,505.455,543.712,505.455,541.4Zm-5.666-10.251-6.561,6.561-3.5-3.5-2.161,2.161,5.666,5.666,8.723-8.723Z" transform="translate(448 460)" fill="#434343" fill-rule="evenodd"/>
    <g id="Ellipse_31" data-name="Ellipse 31" transform="translate(915 969)" fill="none" stroke="#434343" stroke-width="1.5">
      <circle cx="27.5" cy="27.5" r="27.5" stroke="none"/>
      <circle cx="27.5" cy="27.5" r="26.75" fill="none"/>
    </g>
  </g>
</svg>
