<svg xmlns="http://www.w3.org/2000/svg" width="55" height="55" viewBox="0 0 55 55">
  <g id="Group_140" data-name="Group 140" transform="translate(-915 -830)">
    <path id="ic_account_balance_wallet_24px" d="M31.3,26.585v1.572A3.154,3.154,0,0,1,28.157,31.3H6.145A3.144,3.144,0,0,1,3,28.157V6.145A3.144,3.144,0,0,1,6.145,3H28.157A3.154,3.154,0,0,1,31.3,6.145V7.717H17.151a3.144,3.144,0,0,0-3.145,3.145V23.44a3.144,3.144,0,0,0,3.145,3.145ZM17.151,23.44H32.874V10.862H17.151Zm6.289-3.931A2.358,2.358,0,1,1,25.8,17.151,2.355,2.355,0,0,1,23.44,19.509Z" transform="translate(925 840)" fill="#434343"/>
    <g id="Ellipse_33" data-name="Ellipse 33" transform="translate(915 830)" fill="none" stroke="#434343" stroke-width="1.5">
      <circle cx="27.5" cy="27.5" r="27.5" stroke="none"/>
      <circle cx="27.5" cy="27.5" r="26.75" fill="none"/>
    </g>
  </g>
</svg>
