<svg xmlns="http://www.w3.org/2000/svg" width="54.75" height="45" viewBox="0 0 54.75 45"><defs><style>.a{fill:#fff;}.b{fill:#fe667c;}.c{fill:#0023ff;}</style></defs><g transform="translate(-780 -80)"><circle class="a" cx="22.5" cy="22.5" r="22.5" transform="translate(785 80)"/><g transform="translate(780 88.946)"><path class="b" d="M74.985,46.739a1.02,1.02,0,0,1,.063,1.365c-.009.012-.018.021-.027.033-.556.627-1.132,1.24-1.7,1.855a.887.887,0,0,1-1.311.1.964.964,0,0,1-.039-1.383c.579-.633,1.159-1.267,1.744-1.891a.875.875,0,0,1,1.039-.239.934.934,0,0,1,.236.158Z" transform="translate(-50.28 -32.819)"/><path class="b" d="M77.936,56a.91.91,0,0,1-.03-.956,1.033,1.033,0,0,1,.125-.188c.409-.472.839-.926,1.267-1.383a.872.872,0,0,1,1.368.1.926.926,0,0,1-.081,1.108q-.659.771-1.38,1.485a.789.789,0,0,1-.962.1A.8.8,0,0,1,77.936,56Z" transform="translate(-54.552 -37.508)"/><path class="b" d="M70.134,44.328l.012.024a.91.91,0,0,1-.128.983,11.878,11.878,0,0,1-.833.9A.866.866,0,0,1,68,46.228a.889.889,0,0,1-.1-1.195,8.7,8.7,0,0,1,.875-.941.645.645,0,0,1,.114-.081.89.89,0,0,1,1.246.314Z" transform="translate(-47.487 -30.982)"/><path class="b" d="M86.331,59.643a.86.86,0,0,1-.012.8c-.29.553-1.022,1.275-1.4,1.32a.881.881,0,0,1-.815-1.4,11.376,11.376,0,0,1,.911-.986.828.828,0,0,1,.965-.081.869.869,0,0,1,.352.344Z" transform="translate(-58.849 -41.712)"/><path class="c" d="M34.732,15.142a1.075,1.075,0,0,0-.388-.621l-3.417-2.8a3.889,3.889,0,0,0-2.27-.9,2.041,2.041,0,0,0-.824.1,3.286,3.286,0,0,0-1.243.66,3.9,3.9,0,0,1-1.308.72c-.063.018-.128.036-.194.051a.983.983,0,0,1-1.207-.941,1.941,1.941,0,0,1,.439-.944,9.257,9.257,0,0,1,.792-1.225,2.475,2.475,0,0,1,.657-.562c.361-.212,1.042-.466,1.467-.735,0,0-.323-.251-.323-.254-.125-.1-6.347-5.185-8.032-5.8A14.186,14.186,0,0,0,13.294.7S3.587.616.48,10.423c-1.464,4.621.084,14.451,9.7,16.8,9.242,2.255,15.536-5.69,15.783-6.007a.006.006,0,0,0,0-.009,1.1,1.1,0,0,1-1.186-1.183v0c-.06.012-2,.349-2-1.562a.008.008,0,0,0-.009-.009c-.14.03-1.825.346-1.774-1.732V16.71a2,2,0,0,1-.532-.266,1.32,1.32,0,0,1-.52-1.38c0-.006-.006-.012-.009-.006-1.039,1.007-4.28,3.892-7.079,3.725a4.578,4.578,0,0,1-3.844-5.117c.158-3,3.124-4.2,4.684-4.125,2.494.119,5.75,4.113,6.446,5,0,0,.006,0,.009,0a3.129,3.129,0,0,1,1.111-1.162,1.144,1.144,0,0,1,1.5.143,1.066,1.066,0,0,1,.257.535v0l.111.451s.009.009.012.006c.111-.108,1.132-1.054,1.992-.224a1.585,1.585,0,0,1,.182,1.592c0,.006,0,.009.006.009a1.2,1.2,0,0,1,1.063.5,1.23,1.23,0,0,1,.23,1.317c0,.006,0,.009.006.009.087-.03.606-.173,1.165.493.478.571-.048,1.607-.081,1.673v.006l.436.4a1.084,1.084,0,0,0,1.249.173.679.679,0,0,0,.373-.723,1.017,1.017,0,0,0-.361-.636l-1.395-1.177s.072-.424.388-.221l1.715,1.371a.829.829,0,0,0,1.037-.137.714.714,0,0,0,0-1.075l-2.166-1.876s.069-.341.3-.242L31.545,17.5a1,1,0,0,0,1.311-.078.823.823,0,0,0-.066-1.216l-2.647-2.16s-.027-.463.323-.311l2.93,2.154a.9.9,0,0,0,1.177-.1l.009-.009a.7.7,0,0,0,.164-.636Z" transform="translate(-0.003 -0.7)"/><g transform="translate(24.268 0.11)"><path class="b" d="M106.378,3.709c-9.37-6.458-17.74.959-17.74.959L87.163,5.833a7.653,7.653,0,0,0-1.177,1.129,10.215,10.215,0,0,1-1.526,1.4,3.022,3.022,0,0,1-.827.469,3.309,3.309,0,0,0-1.063.663c-.236.257-1.141,1.652-1.141,1.652-.418.821-.033,1.081.4,1.15a1.065,1.065,0,0,0,.869-.284c.508-.338,1.395-.92,1.395-.92a2.748,2.748,0,0,1,2.4-.3,6.257,6.257,0,0,1,1.326.69s3.035,2.234,3.931,3.11a1,1,0,0,1,.251.418c.463-.487,4.427-4.561,6.843-4.439a4.634,4.634,0,1,1-.46,9.257c-2.36-.116-5.8-4.041-6.35-4.681.355,1.64-1.583,1.517-1.583,1.517a1.358,1.358,0,0,1-1.553,1.6c.254,1.786-1.553,1.6-1.553,1.6.239,1.41-1.762,1.508-1.762,1.508s5.389,7.375,14.744,6.341a13.237,13.237,0,0,0,11.345-12.118,13.817,13.817,0,0,0-5.278-11.876Z" transform="translate(-81.248 -1.068)"/></g></g></g></svg>