<svg xmlns="http://www.w3.org/2000/svg" width="35.5" height="35.5" viewBox="0 0 35.5 35.5"><defs><style>.a{fill:#fff;}</style></defs><path class="a" d="M36.528,27.653a22.405,22.405,0,0,1-7.041-1.124A2.013,2.013,0,0,0,27.475,27l-4.339,4.339a29.673,29.673,0,0,1-13-13l4.339-4.359a1.893,1.893,0,0,0,.493-1.972,22.405,22.405,0,0,1-1.124-7.041A1.978,1.978,0,0,0,11.875,3h-6.9A1.978,1.978,0,0,0,3,4.972,33.525,33.525,0,0,0,36.528,38.5,1.978,1.978,0,0,0,38.5,36.528v-6.9A1.978,1.978,0,0,0,36.528,27.653Zm-1.972-6.9H38.5A17.751,17.751,0,0,0,20.75,3V6.944A13.8,13.8,0,0,1,34.556,20.75Zm-7.889,0h3.944a9.865,9.865,0,0,0-9.861-9.861v3.944A5.909,5.909,0,0,1,26.667,20.75Z" transform="translate(-3 -3)"/></svg>